<svg width="14" height="12" viewBox="0 0 14 12" fill="none" xmlns="http://www.w3.org/2000/svg">
<path d="M12.25 1.75H10.125L9.61875 0.33125C9.58377 0.234169 9.51968 0.150253 9.43522 0.090965C9.35077 0.0316772 9.25006 -9.10341e-05 9.14688 1.95942e-07H4.35313C4.14219 1.95942e-07 3.95312 0.132813 3.88281 0.33125L3.375 1.75H1.25C0.559375 1.75 0 2.30938 0 3V10.125C0 10.8156 0.559375 11.375 1.25 11.375H12.25C12.9406 11.375 13.5 10.8156 13.5 10.125V3C13.5 2.30938 12.9406 1.75 12.25 1.75ZM12.375 10.125C12.375 10.1938 12.3188 10.25 12.25 10.25H1.25C1.18125 10.25 1.125 10.1938 1.125 10.125V3C1.125 2.93125 1.18125 2.875 1.25 2.875H4.16719L4.43437 2.12813L4.79219 1.125H8.70625L9.06406 2.12813L9.33125 2.875H12.25C12.3188 2.875 12.375 2.93125 12.375 3V10.125ZM6.75 3.875C5.36875 3.875 4.25 4.99375 4.25 6.375C4.25 7.75625 5.36875 8.875 6.75 8.875C8.13125 8.875 9.25 7.75625 9.25 6.375C9.25 4.99375 8.13125 3.875 6.75 3.875ZM6.75 7.875C5.92188 7.875 5.25 7.20312 5.25 6.375C5.25 5.54688 5.92188 4.875 6.75 4.875C7.57812 4.875 8.25 5.54688 8.25 6.375C8.25 7.20312 7.57812 7.875 6.75 7.875Z" fill="black"/>
</svg>
