<svg width="38" height="38" viewBox="0 0 38 38" fill="none" xmlns="http://www.w3.org/2000/svg">
<path d="M18.9999 8.14288C17.6579 8.14288 16.3459 8.54086 15.23 9.28648C14.1141 10.0321 13.2444 11.0919 12.7308 12.3318C12.2172 13.5717 12.0828 14.9361 12.3446 16.2524C12.6065 17.5687 13.2527 18.7778 14.2017 19.7268C15.1507 20.6758 16.3598 21.3221 17.6761 21.5839C18.9924 21.8458 20.3568 21.7114 21.5967 21.1978C22.8367 20.6842 23.8964 19.8144 24.6421 18.6985C25.3877 17.5826 25.7857 16.2707 25.7857 14.9286C25.7857 13.1289 25.0707 11.4029 23.7982 10.1304C22.5256 8.8578 20.7996 8.14288 18.9999 8.14288ZM18.9999 19C18.1947 19 17.4075 18.7612 16.738 18.3139C16.0684 17.8665 15.5466 17.2306 15.2384 16.4867C14.9303 15.7427 14.8497 14.9241 15.0068 14.1343C15.1639 13.3445 15.5516 12.6191 16.121 12.0497C16.6904 11.4803 17.4159 11.0925 18.2057 10.9354C18.9954 10.7783 19.8141 10.8589 20.558 11.1671C21.302 11.4752 21.9378 11.9971 22.3852 12.6666C22.8326 13.3362 23.0714 14.1233 23.0714 14.9286C23.0703 16.0081 22.641 17.043 21.8777 17.8063C21.1144 18.5696 20.0794 18.9989 18.9999 19Z" fill="white"/>
<path d="M19 0C15.2422 0 11.5687 1.11433 8.44417 3.20208C5.31964 5.28982 2.88436 8.25722 1.4463 11.729C0.00823238 15.2008 -0.368031 19.0211 0.365088 22.7067C1.09821 26.3923 2.90778 29.7778 5.56498 32.435C8.22218 35.0922 11.6077 36.9018 15.2933 37.6349C18.9789 38.368 22.7992 37.9918 26.271 36.5537C29.7428 35.1156 32.7102 32.6804 34.7979 29.5558C36.8857 26.4313 38 22.7578 38 19C37.9943 13.9626 35.9906 9.13326 32.4287 5.57132C28.8667 2.00937 24.0374 0.00574712 19 0ZM10.8571 33.0831V31.2143C10.8582 30.1348 11.2875 29.0998 12.0508 28.3365C12.8141 27.5732 13.8491 27.1439 14.9286 27.1429H23.0714C24.1509 27.1439 25.1859 27.5732 25.9492 28.3365C26.7125 29.0998 27.1418 30.1348 27.1429 31.2143V33.0831C24.6717 34.526 21.8616 35.2864 19 35.2864C16.1384 35.2864 13.3283 34.526 10.8571 33.0831ZM29.8463 31.1139C29.8192 29.3337 29.094 27.6355 27.8267 26.385C26.5595 25.1345 24.8518 24.4319 23.0714 24.4286H14.9286C13.1483 24.4319 11.4405 25.1345 10.1733 26.385C8.90604 27.6355 8.18077 29.3337 8.15372 31.1139C5.69263 28.9163 3.95707 26.023 3.17685 22.8172C2.39664 19.6113 2.60857 16.2441 3.78459 13.1614C4.96061 10.0786 7.04523 7.42583 9.76244 5.5542C12.4796 3.68256 15.7013 2.68039 19.0007 2.68039C22.3001 2.68039 25.5217 3.68256 28.2389 5.5542C30.9561 7.42583 33.0408 10.0786 34.2168 13.1614C35.3928 16.2441 35.6047 19.6113 34.8245 22.8172C34.0443 26.023 32.3087 28.9163 29.8476 31.1139H29.8463Z" fill="white"/>
</svg>
