<svg width="26" height="32" viewBox="0 0 26 32" fill="none" xmlns="http://www.w3.org/2000/svg">
<path d="M13.0005 6.00021C14.3812 6.00021 15.5006 4.88087 15.5006 3.5001C15.5006 2.11933 14.3812 1 13.0005 1C11.6197 1 10.5004 2.11933 10.5004 3.5001C10.5004 4.88087 11.6197 6.00021 13.0005 6.00021Z" stroke="white" stroke-miterlimit="10"/>
<path d="M9.4566 18.4769L7.55652 29.2399C7.52236 29.434 7.5268 29.633 7.56957 29.8254C7.61235 30.0178 7.69263 30.1999 7.80582 30.3612C7.91901 30.5226 8.06289 30.6601 8.22925 30.7658C8.3956 30.8716 8.58116 30.9435 8.77532 30.9774C8.96874 31.0118 9.16706 31.0075 9.3588 30.9647C9.55054 30.922 9.73188 30.8416 9.89233 30.7282C10.0528 30.6148 10.1891 30.4708 10.2935 30.3044C10.3979 30.1379 10.4682 29.9524 10.5004 29.7586L11.8129 22.2646V22.2771C11.8129 22.2771 12.138 20.2457 12.9067 20.2457H13.1005C13.8818 20.2457 14.1943 22.2771 14.1943 22.2771V22.2708L15.5069 29.7649C15.5765 30.1553 15.7983 30.502 16.1236 30.7288C16.4489 30.9556 16.8509 31.0439 17.2413 30.9743C17.6317 30.9047 17.9784 30.6828 18.2052 30.3576C18.432 30.0323 18.5203 29.6302 18.4507 29.2399L16.5506 18.4769L16.2444 16.6206C16.0631 15.4893 15.9819 13.6455 16.2756 12.8892C16.5256 12.2392 17.1588 12.0017 17.7257 12.0017H23.5009C23.8988 12.0017 24.2803 11.8436 24.5616 11.5623C24.843 11.281 25.001 10.8994 25.001 10.5016C25.001 10.1037 24.843 9.7222 24.5616 9.44088C24.2803 9.15957 23.8988 9.00153 23.5009 9.00153H2.50006C2.10222 9.00153 1.72067 9.15957 1.43936 9.44088C1.15804 9.7222 1 10.1037 1 10.5016C1 10.8994 1.15804 11.281 1.43936 11.5623C1.72067 11.8436 2.10222 12.0017 2.50006 12.0017H8.28155C8.85845 12.0017 9.4816 12.2392 9.73161 12.8892C10.0254 13.6455 9.94412 15.4893 9.76286 16.6206L9.4566 18.4769Z" stroke="white" stroke-miterlimit="10"/>
</svg>
